<?xml version="1.0" encoding="UTF-8" standalone="no"?>
<svg
   xmlns:dc="http://purl.org/dc/elements/1.1/"
   xmlns:cc="http://creativecommons.org/ns#"
   xmlns:rdf="http://www.w3.org/1999/02/22-rdf-syntax-ns#"
   xmlns:svg="http://www.w3.org/2000/svg"
   xmlns="http://www.w3.org/2000/svg"
   xmlns:sodipodi="http://sodipodi.sourceforge.net/DTD/sodipodi-0.dtd"
   xmlns:inkscape="http://www.inkscape.org/namespaces/inkscape"
   width="640pt"
   height="200pt"
   viewBox="0 0 640 200"
   version="1.1"
   id="svg2"
   inkscape:version="0.91pre2 r13516"
   sodipodi:docname="WZProjectslogo-vector.svg"
   inkscape:export-filename="C:\Users\William Zhang\Downloads\WZProjectslogo-vector.png"
   inkscape:export-xdpi="90"
   inkscape:export-ydpi="90">
  <metadata
     id="metadata54">
    <rdf:RDF>
      <cc:Work
         rdf:about="">
        <dc:format>image/svg+xml</dc:format>
        <dc:type
           rdf:resource="http://purl.org/dc/dcmitype/StillImage" />
      </cc:Work>
    </rdf:RDF>
  </metadata>
  <defs
     id="defs52" />
  <sodipodi:namedview
     pagecolor="#ffffff"
     bordercolor="#666666"
     borderopacity="1"
     objecttolerance="10"
     gridtolerance="10"
     guidetolerance="10"
     inkscape:pageopacity="0"
     inkscape:pageshadow="2"
     inkscape:window-width="1920"
     inkscape:window-height="1017"
     id="namedview50"
     showgrid="false"
     inkscape:zoom="32.000001"
     inkscape:cx="237.35851"
     inkscape:cy="46.998869"
     inkscape:window-x="-8"
     inkscape:window-y="-8"
     inkscape:window-maximized="1"
     inkscape:current-layer="svg2" />
  <path
     d="m 17.91,42.09 c 0.01,-3.04 3.23,-5.03 6.03,-4.74 50.49,0.06 100.98,-0.06 151.47,0.06 0.92,0.53 1.86,1.04 2.8,1.54 0.61,1.63 1.32,3.27 1.17,5.06 -0.03,30.32 -0.01,60.64 -0.01,90.96 0,3.36 -0.11,6.74 0.2,10.1 5.36,2.29 8.85005,6.44 14.33005,8.31 0.0361,2.77 0.15749,4.34792 -0.26213,7.08256 -0.71076,2.82805 -0.4101,3.48668 -2.26792,3.36744 -61.91,0.15 -123.83,0.09 -185.74,0.02 -3.54,-2.32 -2.25,-6.82 -2.43,-10.4 4.78,-2.84 9.38,-6.01 14.41,-8.39 C 18,110.74 17.4,76.4 17.91,42.09 Z"
     id="path6"
     inkscape:connector-curvature="0"
     style="fill:#000000"
     sodipodi:nodetypes="cccccscccccccc" />
  <path
     d=" M 23.58 49.22 C 27.27 47.98 31.22 48.39 35.05 48.38 C 80.93 48.34 126.86 48.40 172.71 48.34 C 173.14 50.64 171.33 52.63 171.45 54.93 C 171.40 82.77 171.46 110.62 171.43 138.46 C 122.85 138.47 74.27 138.48 25.69 138.45 C 25.69 109.03 25.68 79.61 25.70 50.19 C 71.13 50.20 116.56 50.19 161.99 50.19 C 165.15 50.18 168.33 50.05 171.47 50.52 C 171.52 50.19 171.63 49.52 171.69 49.18 C 169.55 48.28 167.22 48.58 164.98 48.61 C 123.97 48.68 82.97 48.60 41.97 48.65 C 35.83 48.81 29.66 48.17 23.58 49.22 Z"
     id="path8"
     fill="#ff9300" />
  <path
     fill="#ffffff"
     d=" M 31.16 67.36 C 34.58 67.48 37.99 67.49 41.40 67.42 C 45.35 83.31 48.54 99.42 53.04 115.16 C 57.04 99.20 61.50 83.36 65.60 67.42 C 69.16 67.47 72.72 67.47 76.28 67.43 C 80.75 83.42 84.04 99.73 88.98 115.59 C 91.92 99.73 97.06 84.36 99.93 68.51 C 103.62 68.16 107.32 68.26 111.02 68.29 C 107.79 82.50 103.21 96.35 99.62 110.47 C 97.93 117.01 96.08 123.50 94.18 129.98 C 90.44 130.00 86.68 130.13 82.94 129.77 C 79.68 113.84 74.38 98.40 71.02 82.49 C 66.06 98.15 62.51 114.20 57.99 129.99 C 54.24 130.01 50.49 130.02 46.74 129.92 C 42.70 112.88 37.65 96.11 33.54 79.09 C 32.69 75.19 30.96 71.42 31.16 67.36 Z"
     id="path10" />
  <path
     fill="#ffffff"
     d=" M 116.38 67.39 C 131.78 67.50 147.18 67.51 162.58 67.38 C 163.07 70.60 164.26 74.45 162.27 77.35 C 150.43 91.66 138.93 106.25 127.00 120.49 C 139.59 120.83 152.18 120.45 164.78 120.69 C 164.73 123.73 164.74 126.77 164.87 129.81 C 147.66 130.23 130.44 129.89 113.23 129.99 C 113.23 127.06 113.23 124.14 113.22 121.22 C 125.13 106.62 137.23 92.19 149.15 77.59 C 138.18 77.42 127.21 77.54 116.25 77.53 C 116.15 74.14 116.17 70.76 116.38 67.39 Z"
     id="path12" />
  <path
     d="M 424.05469 92.09375 C 421.36152 92.050586 418.66953 92.277344 416.05078 92.761719 C 405.28828 94.224219 395.975 101.9875 391.75 111.875 C 388.375 121.5 388.4 132.42539 393 141.65039 C 393.0625 141.77539 393.19922 142 393.26172 142.125 C 402.82422 160.975 430.79922 164.76328 446.13672 150.98828 C 460.82422 138.36328 460.82578 112.93789 446.30078 100.21289 C 440.21641 94.794141 432.13418 92.223242 424.05469 92.09375 z M 423.34961 100.22266 C 432.41113 100.27168 441.32031 105.79297 444.80078 114.30078 C 448.90078 124.46328 447.45039 137.69922 438.83789 145.13672 C 429.87539 152.97422 414.42539 152.775 406.33789 143.75 C 399.31289 136.7875 398.03672 125.52539 400.94922 116.40039 C 403.66172 107.47539 412.19961 100.78711 421.53711 100.28711 C 422.14102 100.24102 422.74551 100.21939 423.34961 100.22266 z "
     transform="scale(0.8,0.8)"
     id="path14" />
  <path
     fill="#000000"
     d=" M 451.93 86.55 C 460.03 72.10 483.19 68.75 494.13 81.65 C 492.27 83.20 490.43 84.77 488.42 86.11 C 484.51 81.48 478.02 79.21 472.11 80.61 C 464.56 81.62 458.75 88.16 457.13 95.39 C 455.88 102.15 456.98 109.91 461.93 115.02 C 468.88 122.75 483.08 122.76 489.17 113.97 C 491.19 115.31 493.18 116.69 495.22 118.01 C 485.93 130.48 465.26 130.33 455.29 118.83 C 453.83 117.29 452.52 115.58 451.55 113.69 C 451.53 113.64 451.47 113.53 451.45 113.48 C 447.36 105.10 447.47 94.77 451.93 86.55 Z"
     id="path16" />
  <path
     fill="#000000"
     d=" M 552.51 74.36 C 559.92 72.49 568.33 74.04 573.92 79.47 C 572.11 81.20 570.32 82.96 568.54 84.72 C 564.46 79.15 555.12 77.85 550.58 83.51 C 547.62 86.16 548.45 91.31 551.66 93.43 C 557.02 96.95 563.84 97.32 569.06 101.16 C 574.19 104.36 574.55 111.01 573.76 116.41 C 572.13 120.57 569.11 124.33 564.83 125.91 C 556.32 129.16 545.48 127.16 539.62 119.89 C 541.43 118.21 543.25 116.53 545.09 114.88 C 548.43 119.09 554.06 122.25 559.51 120.56 C 563.34 119.76 567.01 116.24 566.42 112.07 C 566.72 108.18 562.78 105.87 559.70 104.55 C 559.60 104.50 559.40 104.42 559.30 104.38 C 552.86 102.14 544.82 100.22 542.07 93.16 C 538.90 85.29 544.45 76.18 552.51 74.36 Z"
     id="path18" />
  <path
     d="M 296.99609 93.738281 C 292.61797 93.753906 288.23828 93.824219 283.86328 93.761719 C 283.87578 115.01172 283.875 136.25 283.875 157.5 C 287.025 157.5 290.17422 157.50078 293.32422 157.48828 C 293.29922 148.22578 293.33828 138.97539 293.30078 129.71289 C 301.86328 129.77539 311.08828 130.53828 318.80078 126.05078 C 322.37578 124.08828 324.33711 120.37461 325.91211 116.78711 C 326.11211 112.22461 326.93711 107.23789 324.53711 103.08789 C 322.04961 97.512891 315.73828 95.063281 310.11328 94.050781 C 305.75078 93.763281 301.37422 93.722656 296.99609 93.738281 z M 293.32422 101.33789 C 299.97422 101.40039 307.1375 100.98789 313.25 104.02539 C 317.4 106.58789 316.925 111.72539 316.375 115.90039 C 314.9875 117.21289 313.6125 118.5375 312.25 119.875 C 306.2 122.2875 299.62539 121.43711 293.27539 121.66211 C 293.36289 114.88711 293.29922 108.11289 293.32422 101.33789 z "
     transform="scale(0.8,0.8)"
     id="path20" />
  <path
     d="M 350.13672 93.738281 C 345.54453 93.746094 340.95078 93.830469 336.36328 93.761719 C 336.37578 115.01172 336.375 136.25 336.375 157.5 C 339.5125 157.5 342.67422 157.50078 345.82422 157.48828 C 345.77422 148.16328 345.9 138.83672 345.75 129.51172 C 348.725 129.57422 351.7125 129.575 354.6875 129.5 C 360.275 138.6875 365.49922 148.08789 370.76172 157.46289 C 374.62422 157.51289 378.51172 157.48789 382.38672 157.52539 C 379.48672 153.36289 377.05 148.91211 374.375 144.59961 C 374.3375 144.53711 374.25039 144.40039 374.21289 144.33789 C 370.93789 139.06289 367.82539 133.675 364.40039 128.5 C 371.21289 127.025 377.71328 122.5 379.61328 115.5 C 379.77578 112.65 379.74922 109.7875 379.57422 106.9375 C 377.56172 99.95 371.08789 94.875781 363.90039 94.175781 C 359.31914 93.800781 354.72891 93.730469 350.13672 93.738281 z M 345.82422 101.33789 C 354.11172 101.52539 364.57461 100.08711 370.09961 107.78711 C 370.39961 111.27461 370.7375 115.29922 367.6875 117.76172 C 361.6375 123.01172 353.125 121.0875 345.8125 121.5 C 345.8375 114.775 345.81172 108.06289 345.82422 101.33789 z "
     transform="scale(0.8,0.8)"
     id="path22" />
  <path
     fill="#000000"
     d=" M 388.40 75.02 C 390.91 75.01 393.42 75.01 395.94 75.01 C 395.91 87.02 395.99 99.03 395.91 111.04 C 396.01 115.98 394.55 121.38 390.57 124.59 C 387.37 126.85 383.18 127.90 379.31 127.17 C 373.29 126.99 368.31 122.05 366.88 116.40 C 369.17 115.73 371.48 115.13 373.73 114.36 C 374.59 119.39 380.14 122.09 384.72 120.10 C 386.68 118.23 388.35 115.82 388.27 112.99 C 388.58 100.34 388.33 87.68 388.40 75.02 Z"
     id="path24" />
  <path
     fill="#000000"
     d=" M 408.10 75.01 C 419.04 75.01 429.99 75.01 440.94 75.01 C 440.94 77.22 440.93 79.43 440.93 81.64 C 432.48 81.60 424.04 81.71 415.60 81.59 C 415.70 86.50 415.66 91.41 415.62 96.32 C 423.62 96.26 431.62 96.24 439.62 96.34 C 439.67 98.50 439.68 100.67 439.71 102.84 C 431.69 102.82 423.67 102.86 415.65 102.81 C 415.64 108.34 415.70 113.86 415.60 119.39 C 424.39 119.26 433.18 119.38 441.97 119.32 C 441.98 121.55 441.98 123.77 441.98 126.00 C 430.69 126.00 419.39 126.00 408.10 126.00 C 408.10 109.00 408.10 92.01 408.10 75.01 Z"
     id="path26" />
  <path
     fill="#000000"
     d=" M 496.27 75.02 C 509.75 75.01 523.22 75.01 536.70 75.02 C 536.31 77.10 537.59 79.99 535.95 81.57 C 530.65 81.77 525.34 81.56 520.03 81.65 C 520.02 96.43 520.03 111.21 520.03 126.00 C 517.66 126.00 515.29 126.00 512.93 126.00 C 512.93 111.21 512.93 96.43 512.93 81.65 C 507.42 81.60 501.90 81.71 496.39 81.58 C 496.29 79.39 496.28 77.21 496.27 75.02 Z"
     id="path28" />
  <path
     fill="#cccccc"
     d=" M 559.30 104.38 C 559.40 104.42 559.60 104.50 559.70 104.55 C 559.60 104.50 559.40 104.42 559.30 104.38 Z"
     id="path36" />
  <path
     fill="#cccccc"
     d=" M 314.40 113.32 C 314.45 113.42 314.56 113.60 314.61 113.70 C 314.56 113.60 314.45 113.42 314.40 113.32 Z"
     id="path38" />
  <path
     fill="#cccccc"
     d=" M 451.45 113.48 C 451.47 113.53 451.53 113.64 451.55 113.69 C 451.53 113.64 451.47 113.53 451.45 113.48 Z"
     id="path40" />
  <path
     fill="#cccccc"
     d=" M 299.37 115.47 C 299.40 115.52 299.47 115.63 299.50 115.68 C 299.47 115.63 299.40 115.52 299.37 115.47 Z"
     id="path42" />
  <path
     fill="#cccccc"
     d=" M 7.41 153.22 C 11.59 150.83 15.47 147.73 19.98 145.98 C 71.65 145.74 123.34 145.97 175.03 145.87 C 177.82 145.51 180.09 147.32 182.33 148.66 C 184.62 150.12 187.14 151.28 189.14 153.16 C 162.27 153.35 135.39 153.11 108.52 153.28 C 108.62 154.75 107.87 156.59 106.08 156.34 C 101.05 156.41 96.01 156.42 90.98 156.33 C 89.20 156.62 88.63 154.57 88.57 153.22 C 61.52 153.23 34.46 153.23 7.41 153.22 Z"
     id="path44" />
  <path
     d=" M 5.17 154.86 C 32.50 154.96 59.82 154.82 87.14 154.93 C 87.82 156.12 88.36 157.88 90.08 157.68 C 96.45 157.75 102.89 158.18 109.22 157.32 C 109.35 156.72 109.61 155.51 109.74 154.91 C 137.11 154.86 164.49 154.94 191.87 154.86 C 191.85 157.12 191.79 159.38 191.62 161.64 C 190.09 161.77 188.56 161.89 187.03 161.91 C 130.37 161.90 73.70 161.90 17.04 161.90 C 13.18 161.81 9.29 162.29 5.47 161.57 C 5.26 159.34 5.18 157.10 5.17 154.86 Z"
     id="path46"
     fill="#cccccc" />
  <path
     d="m 180.56229,157.92138 c 5.86967,0.0146 0,0 5.86967,0.0146 -0.0209,0.73934 0,0 -0.0209,0.73934 0,0 0,0 -5.79905,0.0277 0,0 0,0 -0.0497,-0.78166 z"
     id="path48"
     inkscape:connector-curvature="0"
     style="fill:#000000"
     sodipodi:nodetypes="ccccc" />
  <rect
     style="fill:#000000;fill-rule:evenodd;stroke:#000000;stroke-width:0.80000001px;stroke-linecap:butt;stroke-linejoin:miter;stroke-opacity:1"
     id="rect3401"
     width="1.9243987"
     height="5.7560139"
     x="171.85568"
     y="48.676975" />
  <rect
     style="fill:#000000;fill-opacity:1"
     id="rect4203"
     width="147.87549"
     height="0.94394606"
     x="23.596521"
     y="48.296227" />
  <rect
     style="fill:#ff9300;fill-opacity:1"
     id="rect4211"
     width="145.70065"
     height="16.082474"
     x="25.708279"
     y="49.347076" />
</svg>
